# xmcd CD database file
#
# Track frame offsets:
#	150
#	27220
#	46242
#	74432
#	102327
#	128405
#	152235
#	179175
#
# Disc length: 2722 seconds
#
# Revision: 0
# Processed by: cddbd v1.5PL3 Copyright (c) Steve Scherf et al.
# Submitted via: CDex 1.50beta8
#
DISCID=6a0aa008
DTITLE=Shiho - Ecstasia
DYEAR=1989
DGENRE=JPop
TTITLE0=Bad Man(Album Version)
TTITLE1=Flaming Color
TTITLE2=One Love One Heart
TTITLE3=Never Be So Blue
TTITLE4=Rock This House(Album Version)
TTITLE5=Like The Puppet
TTITLE6=Miracle Love
TTITLE7=Burn It up〜LOVE
EXTD=YEAR: 1989
EXTT0=
EXTT1=
EXTT2=
EXTT3=
EXTT4=
EXTT5=
EXTT6=
EXTT7=
PLAYORDER=
